<svg xmlns="http://www.w3.org/2000/svg" width="144" height="144" viewBox="0 0 144 144" fill="none">
  <path d="M93.7363 68.7505L88.7672 63.7672C88.5985 63.598 85.9601 66.2456 86.1289 66.4131L91.0979 71.3963C91.4618 71.7612 91.9399 71.9446 92.418 71.9446C92.8961 71.9446 93.3725 71.7612 93.7381 71.3963C94.4675 70.6648 94.4675 69.4802 93.7381 68.7505H93.7363Z" fill="url(#paint0_linear_1808_4724)"/>
  <path d="M87.766 51.5053C85.9134 49.6474 83.4525 48.625 80.8318 48.625C78.211 48.625 75.7502 49.6474 73.8975 51.5053C72.0449 53.3633 71.0254 55.8329 71.0254 58.4594C71.0254 61.0859 72.0449 63.5555 73.8975 65.4116C75.7502 67.2696 78.211 68.292 80.8318 68.292C82.8619 68.292 84.7954 67.675 86.4266 66.5345C86.8994 66.2031 87.3494 65.8294 87.766 65.4116C88.1826 64.9939 88.5552 64.5426 88.8857 64.0684C90.0229 62.4326 90.6381 60.4936 90.6381 58.4576C90.6381 55.8311 89.6186 53.3615 87.766 51.5036V51.5053ZM80.8318 64.5497C79.2094 64.5497 77.6837 63.9168 76.5376 62.7658C75.3898 61.6147 74.7588 60.0864 74.7588 58.4594C74.7588 56.8323 75.3898 55.3023 76.5376 54.153C77.6854 53.0019 79.2094 52.3691 80.8318 52.3691C82.4541 52.3691 83.9798 53.0019 85.1259 54.153C86.2737 55.304 86.9047 56.8323 86.9047 58.4594C86.9047 60.0864 86.2737 61.6164 85.1259 62.7658C83.9781 63.9168 82.4541 64.5497 80.8318 64.5497Z" fill="url(#paint1_linear_1808_4724)"/>
  <path d="M86.5738 44.8898C88.444 44.7329 89.8326 43.0865 89.6761 41.2109C89.5197 39.3354 87.878 37.9428 86.0078 38.0997L79.2757 38.6638C79.2757 38.6638 79.2669 38.6602 79.2669 38.6567L79.1807 37.6149C79.0015 35.4538 77.0908 33.8338 74.9358 34.0136L65.9433 34.7663C63.7883 34.9461 62.173 36.8622 62.3523 39.0234L62.4384 40.0651C62.4384 40.0651 62.4349 40.074 62.4314 40.074L55.7871 40.631C53.9486 40.7843 52.4967 42.3514 52.5881 44.2005C52.6847 46.1343 54.3563 47.5885 56.2652 47.4281C56.2652 47.4281 86.2591 44.9268 86.5738 44.8898Z" fill="url(#paint2_linear_1808_4724)"/>
  <path d="M57.5176 49.6758L59.6761 75.8649C59.822 77.6312 61.2949 78.9921 63.0615 78.9921H80.6967C82.4703 78.9921 83.945 77.6242 84.0839 75.8508L84.5532 69.8734C80.2186 71.3382 75.2267 70.2947 71.829 66.7427C67.2695 61.9763 67.3292 54.3647 71.9556 49.667C72.4424 49.1734 72.961 48.731 73.5024 48.3379" fill="url(#paint3_linear_1808_4724)"/>
  <path d="M28.9107 108.998C27.8842 108.554 26.9931 107.944 26.2394 107.166V107.131C26.193 107.497 26.1202 107.873 26.0172 108.261C25.9141 108.649 25.8293 108.98 25.7606 109.253H21V83.2598H26.9931V92.8859C27.6781 92.2919 28.4702 91.8352 29.3734 91.516C30.2746 91.1967 31.2505 91.0371 32.3013 91.0371H32.5417C33.7743 91.0371 34.9038 91.2594 35.9323 91.7039C36.9588 92.1484 37.8438 92.7647 38.5854 93.5527C39.3269 94.3408 39.9089 95.2763 40.3312 96.3614C40.7535 97.4465 40.9656 98.6164 40.9656 99.8712V100.831C40.9656 102.086 40.7535 103.258 40.3312 104.341C39.9089 105.426 39.3269 106.361 38.5854 107.149C37.8438 107.937 36.9588 108.554 35.9323 108.998C34.9058 109.443 33.7743 109.665 32.5417 109.665H32.3013C31.0687 109.665 29.9392 109.443 28.9107 108.998ZM31.0687 105.454C31.5941 105.454 32.0891 105.335 32.5579 105.094C33.0246 104.854 33.4247 104.525 33.7561 104.102C34.0875 103.68 34.3502 103.167 34.5441 102.561C34.7381 101.956 34.8351 101.312 34.8351 100.627V100.079C34.8351 99.3943 34.7381 98.7498 34.5441 98.1436C34.3502 97.5394 34.0875 97.0262 33.7561 96.6039C33.4247 96.1816 33.0246 95.8502 32.5579 95.6097C32.0891 95.3693 31.5941 95.2501 31.0687 95.2501H30.6929C30.1675 95.2501 29.6765 95.3693 29.2198 95.6097C28.7632 95.8502 28.3752 96.1816 28.056 96.6039C27.7367 97.0262 27.4801 97.5394 27.2861 98.1436C27.0921 98.7498 26.9951 99.3943 26.9951 100.079V100.627C26.9951 101.312 27.0861 101.956 27.2699 102.561C27.4518 103.167 27.7084 103.68 28.0398 104.102C28.3712 104.525 28.7652 104.856 29.2219 105.094C29.6785 105.335 30.1695 105.454 30.6949 105.454H31.0707H31.0687Z" fill="#2C352F"/>
  <path d="M43.6182 88.3273C43.014 87.802 42.7109 87.1069 42.7109 86.238C42.7109 85.3692 43.014 84.6579 43.6182 84.0982C44.2224 83.5385 45.0165 83.2596 45.9985 83.2596C46.9805 83.2596 47.8594 83.5385 48.498 84.0982C49.1365 84.6579 49.4578 85.3712 49.4578 86.238C49.4578 87.1049 49.1446 87.802 48.5161 88.3273C47.8877 88.8527 47.0613 89.1154 46.0328 89.1154C45.0043 89.1154 44.2224 88.8527 43.6182 88.3273ZM43.0868 91.1703H49.0799V109.255H43.0868V91.1703Z" fill="#2C352F"/>
  <path d="M52.0918 91.4495H56.818C56.9554 91.8152 57.0867 92.2941 57.212 92.8882C57.3373 93.4822 57.3999 93.9732 57.3999 94.3612C58.3577 93.2195 59.4307 92.381 60.6188 91.8435C61.8049 91.308 62.9687 91.0393 64.1124 91.0393H64.1811C66.1896 91.0393 67.7414 91.6455 68.8386 92.8538C69.9338 94.0642 70.4814 95.7534 70.4814 97.9215V109.255H64.5226V99.2228C64.5226 98.1276 64.3064 97.2992 63.8719 96.7394C63.4375 96.1797 62.7424 95.9009 61.7826 95.9009H61.6452C61.0976 95.9009 60.6006 96.01 60.156 96.2262C59.7115 96.4444 59.3337 96.7394 59.0265 97.1173C58.7174 97.4931 58.4789 97.9276 58.3072 98.4186C58.1354 98.9096 58.0506 99.441 58.0506 100.011V109.255H52.0918V91.4495Z" fill="#2C352F"/>
  <path d="M91.2672 104.601L91.5157 108.877C90.4104 109.483 89.2708 109.697 87.9877 109.697C85.6721 109.697 84.5668 108.772 84.3183 107.238C83.0009 108.913 81.1823 109.768 78.8323 109.768C74.9487 109.768 72.0977 106.99 72.0977 102.144C72.0977 95.8016 75.8035 91.0289 81.0409 91.0289C83.6414 91.0289 85.3165 91.8836 86.2783 93.4516L88.2747 83.2596H93.9748L90.0205 103.532C89.877 104.424 90.0912 104.708 90.6266 104.708C90.9479 104.708 91.0894 104.672 91.2672 104.601ZM84.5325 102.5L85.2094 98.9375C85.0659 97.0483 83.8919 95.9794 82.0734 95.9794C79.2223 95.9794 77.9049 98.7234 77.9049 101.253C77.9049 103.64 79.0809 104.815 81.1116 104.815C82.7139 104.815 83.8556 103.961 84.5325 102.5Z" fill="#2C352F"/>
  <path d="M106.761 103.355L109.148 107.275C107.295 108.736 104.979 109.768 101.487 109.768C96.2865 109.768 92.9727 107.131 92.9727 101.823C92.9727 95.8724 96.7855 91.027 103.555 91.027C107.83 91.027 110.324 93.1284 110.324 96.3715C110.324 100.611 106.476 102.534 99.0284 102.856C99.3497 104.28 100.312 104.923 102.306 104.923C103.803 104.923 105.335 104.494 106.759 103.355H106.761ZM99.0648 99.2933C102.627 99.0448 104.765 98.6528 104.765 96.9413C104.765 96.0502 104.195 95.5511 103.126 95.5511C101.273 95.5511 99.6346 96.8342 99.0648 99.2913V99.2933Z" fill="#2C352F"/>
  <path d="M126 91.3118L124.11 97.1554C123.577 96.9776 123.219 96.8705 122.401 96.8705C120.37 96.8705 118.946 98.0829 118.232 100.007L116.45 109.235H110.75L113.031 97.4423C113.209 96.622 112.853 96.3371 112.425 96.3371C112.14 96.3371 111.892 96.4078 111.785 96.4805L111.57 92.1686C112.496 91.6695 113.672 91.3138 115.24 91.3138C117.699 91.3138 118.909 92.3827 119.123 93.9507C120.156 92.3484 121.831 91.0653 124.254 91.0653C124.967 91.0653 125.393 91.136 126 91.3138V91.3118Z" fill="#2C352F"/>
  <defs>
    <linearGradient id="paint0_linear_1808_4724" x1="90.2031" y1="63.7594" x2="90.2031" y2="71.9446" gradientUnits="userSpaceOnUse">
      <stop stop-color="#10D07D"/>
      <stop offset="1" stop-color="#46F0C5"/>
    </linearGradient>
    <linearGradient id="paint1_linear_1808_4724" x1="80.8318" y1="48.625" x2="80.8318" y2="68.292" gradientUnits="userSpaceOnUse">
      <stop stop-color="#10D07D"/>
      <stop offset="1" stop-color="#46F0C5"/>
    </linearGradient>
    <linearGradient id="paint2_linear_1808_4724" x1="71.1361" y1="34" x2="71.1361" y2="47.4402" gradientUnits="userSpaceOnUse">
      <stop stop-color="#10D07D"/>
      <stop offset="1" stop-color="#30DA9C"/>
    </linearGradient>
    <linearGradient id="paint3_linear_1808_4724" x1="71.0354" y1="48.3379" x2="71.0354" y2="78.9921" gradientUnits="userSpaceOnUse">
      <stop stop-color="#10D07D"/>
      <stop offset="1" stop-color="#30DA9C"/>
    </linearGradient>
  </defs>
</svg>